<mxfile host="app.diagrams.net" agent="Mozilla/5.0 (X11; Linux x86_64) AppleWebKit/537.36 (KHTML, like Gecko) Chrome/127.0.0.0 Safari/537.36" version="24.7.4">
  <diagram id="6a731a19-8d31-9384-78a2-239565b7b9f0" name="Page-1">
    <mxGraphModel dx="1588" dy="1072" grid="0" gridSize="10" guides="1" tooltips="1" connect="1" arrows="1" fold="1" page="1" pageScale="1" pageWidth="1169" pageHeight="827" background="none" math="0" shadow="0">
      <root>
        <mxCell id="0" />
        <mxCell id="1" parent="0" />
        <mxCell id="GuG60UyDkbhPA3pwrda1-1" value="" style="verticalAlign=top;verticalLabelPosition=bottom;labelPosition=center;align=center;html=1;outlineConnect=0;gradientDirection=north;strokeWidth=2;shape=mxgraph.networks.firewall;fillColor=#000000;strokeColor=none;shadow=0;fillStyle=solid;labelBackgroundColor=none;fontColor=#1D3557;" vertex="1" parent="1">
          <mxGeometry x="332" y="205" width="100" height="100" as="geometry" />
        </mxCell>
        <mxCell id="GuG60UyDkbhPA3pwrda1-2" value="" style="html=1;outlineConnect=0;gradientDirection=north;strokeWidth=2;shape=mxgraph.networks.cloud;fillColor=#000000;strokeColor=none;shadow=0;fillStyle=solid;labelBackgroundColor=none;fontColor=#1D3557;" vertex="1" parent="1">
          <mxGeometry x="540" y="70" width="90" height="50" as="geometry" />
        </mxCell>
        <mxCell id="GuG60UyDkbhPA3pwrda1-5" value="" style="verticalAlign=top;verticalLabelPosition=bottom;labelPosition=center;align=center;html=1;outlineConnect=0;gradientDirection=north;strokeWidth=2;shape=mxgraph.networks.virtual_pc;fillColor=#000000;strokeColor=none;shadow=0;fillStyle=solid;labelBackgroundColor=none;fontColor=#1D3557;" vertex="1" parent="1">
          <mxGeometry x="220" y="365" width="115" height="85" as="geometry" />
        </mxCell>
        <mxCell id="GuG60UyDkbhPA3pwrda1-6" value="" style="verticalAlign=top;verticalLabelPosition=bottom;labelPosition=center;align=center;html=1;outlineConnect=0;gradientDirection=north;strokeWidth=2;shape=mxgraph.networks.virtual_server;fillColor=#000000;strokeColor=none;shadow=0;fillStyle=solid;labelBackgroundColor=none;fontColor=#1D3557;" vertex="1" parent="1">
          <mxGeometry x="90" y="330" width="110" height="120" as="geometry" />
        </mxCell>
        <mxCell id="GuG60UyDkbhPA3pwrda1-8" value="" style="verticalAlign=top;verticalLabelPosition=bottom;labelPosition=center;align=center;html=1;outlineConnect=0;gradientDirection=north;strokeWidth=2;shape=mxgraph.networks.unsecure;fillColor=#000000;strokeColor=none;shadow=0;fillStyle=solid;labelBackgroundColor=none;fontColor=#1D3557;" vertex="1" parent="1">
          <mxGeometry x="20" y="30" width="80" height="100" as="geometry" />
        </mxCell>
        <mxCell id="GuG60UyDkbhPA3pwrda1-9" value="" style="verticalAlign=top;verticalLabelPosition=bottom;labelPosition=center;align=center;html=1;outlineConnect=0;gradientDirection=north;strokeWidth=2;shape=mxgraph.networks.secured;fillColor=#000000;strokeColor=none;shadow=0;fillStyle=solid;labelBackgroundColor=none;fontColor=#1D3557;" vertex="1" parent="1">
          <mxGeometry x="110" y="30" width="80" height="100" as="geometry" />
        </mxCell>
      </root>
    </mxGraphModel>
  </diagram>
</mxfile>
